<svg xmlns="http://www.w3.org/2000/svg" viewBox="0 0 108 108" role="img" aria-labelledby="title">
  <title>Nitya Mantra lotus icon</title>
  <defs>
    <radialGradient id="outerGlow" cx="50%" cy="50%" r="50%">
      <stop offset="0%" stop-color="#ff8f00" stop-opacity="0.6" />
      <stop offset="100%" stop-color="#bf360c" stop-opacity="0.2" />
    </radialGradient>
  </defs>
  <circle cx="54" cy="54" r="52" fill="#E65100" />
  <circle cx="54" cy="54" r="48" fill="url(#outerGlow)" />
  <circle cx="54" cy="54" r="32" fill="#FFB300" fill-opacity="0.25" />

  <circle cx="54" cy="54" r="30" fill="#FFD700" opacity="0.15" />
  <path fill="#4FC3F7" fill-opacity="0.3" d="M24 68 Q40 72 54 72 Q68 72 84 68 Q78 76 54 76 Q30 76 24 68" />

  <path fill="#F8BBD9" d="M54 32 Q48 40 46 52 Q48 58 54 60 Q60 58 62 52 Q60 40 54 32" />
  <path fill="#F8BBD9" d="M32 44 Q38 48 44 54 Q46 60 44 64 Q38 62 32 56 Q28 50 32 44" />
  <path fill="#F8BBD9" d="M76 44 Q70 48 64 54 Q62 60 64 64 Q70 62 76 56 Q80 50 76 44" />

  <path fill="#F48FB1" d="M54 36 Q50 44 48 54 Q50 60 54 62 Q58 60 60 54 Q58 44 54 36" />
  <path fill="#F48FB1" d="M38 48 Q42 52 46 56 Q48 62 46 66 Q42 64 38 58 Q36 52 38 48" />
  <path fill="#F48FB1" d="M70 48 Q66 52 62 56 Q60 62 62 66 Q66 64 70 58 Q72 52 70 48" />

  <path fill="#EC407A" d="M54 40 Q52 48 50 56 Q52 62 54 64 Q56 62 58 56 Q56 48 54 40" />
  <path fill="#EC407A" d="M44 52 Q46 56 48 60 Q48 64 46 68 Q44 66 42 60 Q42 56 44 52" />
  <path fill="#EC407A" d="M64 52 Q62 56 60 60 Q60 64 62 68 Q64 66 66 60 Q66 56 64 52" />

  <path fill="#E91E63" d="M54 44 Q52 52 52 58 Q54 64 54 66 Q54 64 56 58 Q56 52 54 44" />

  <circle cx="54" cy="58" r="4" fill="#FFD700" />
  <circle cx="54" cy="58" r="2" fill="#FFC107" />

  <circle cx="50" cy="56" r="1" fill="#FFD700" />
  <circle cx="58" cy="56" r="1" fill="#FFD700" />
  <circle cx="52" cy="54" r="1" fill="#FFD700" />
  <circle cx="56" cy="54" r="1" fill="#FFD700" />
</svg>
